<?xml version="1.0" encoding="utf-8"?>
<!-- Generator: Adobe Illustrator 21.0.0, SVG Export Plug-In . SVG Version: 6.00 Build 0)  -->
<svg version="1.1" id="Layer_1" xmlns="http://www.w3.org/2000/svg" xmlns:xlink="http://www.w3.org/1999/xlink" x="0px" y="0px"
	 viewBox="0 0 24 24" style="enable-background:new 0 0 24 24;" xml:space="preserve">
<g>
	<polygon points="7.4,8.2 5.9,8.2 5.9,11.2 2.9,11.2 2.9,12.8 5.9,12.8 5.9,15.8 7.4,15.8 7.4,12.8 10.4,12.8 10.4,11.2 7.4,11.2 	
		"/>
	<path d="M17.9,8.8c0,1.8-1.4,3.2-3.2,3.2s-3.2-1.4-3.2-3.2s1.4-3.2,3.2-3.2S17.9,7,17.9,8.8z M8.2,17.4c0-2.1,4.3-3.3,6.4-3.3
		s6.4,1.2,6.4,3.3v1.1H8.2V17.4z"/>
</g>
</svg>
